HIERARCHY
ROOT Hips
{
	OFFSET 0.00000 0.00000 0.00000
	CHANNELS 6 Xposition Yposition Zposition Zrotation Yrotation Xrotation 
	JOINT LHipJoint
	{
		OFFSET 0 0 0
		CHANNELS 3 Zrotation Yrotation Xrotation
		JOINT LeftUpLeg
		{
			OFFSET 1.36337 -1.57426 1.11036
			CHANNELS 3 Zrotation Yrotation Xrotation
			JOINT LeftLeg
			{
				OFFSET 2.38468 -6.55187 0.00000
				CHANNELS 3 Zrotation Yrotation Xrotation
				JOINT LeftFoot
				{
					OFFSET 2.37166 -6.51609 0.00000
					CHANNELS 3 Zrotation Yrotation Xrotation
					JOINT LeftToeBase
					{
						OFFSET 0.29078 -0.79891 2.01393
						CHANNELS 3 Zrotation Yrotation Xrotation
						End Site
						{
							OFFSET 0.00000 -0.00000 1.07924
						}
					}
				}
			}
		}
	}
	JOINT RHipJoint
	{
		OFFSET 0 0 0
		CHANNELS 3 Zrotation Yrotation Xrotation
		JOINT RightUpLeg
		{
			OFFSET -1.36349 -1.57426 1.11036
			CHANNELS 3 Zrotation Yrotation Xrotation
			JOINT RightLeg
			{
				OFFSET -2.29562 -6.30717 0.00000
				CHANNELS 3 Zrotation Yrotation Xrotation
				JOINT RightFoot
				{
					OFFSET -2.40985 -6.62100 0.00000
					CHANNELS 3 Zrotation Yrotation Xrotation
					JOINT RightToeBase
					{
						OFFSET -0.23197 -0.63733 1.92232
						CHANNELS 3 Zrotation Yrotation Xrotation
						End Site
						{
							OFFSET -0.00000 -0.00000 1.01562
						}
					}
				}
			}
		}
	}
	JOINT LowerBack
	{
		OFFSET 0 0 0
		CHANNELS 3 Zrotation Yrotation Xrotation
		JOINT Spine
		{
			OFFSET -0.08565 2.03602 -0.24562
			CHANNELS 3 Zrotation Yrotation Xrotation
			JOINT Spine1
			{
				OFFSET -0.00036 2.05693 0.00216
				CHANNELS 3 Zrotation Yrotation Xrotation
				JOINT Neck
				{
					OFFSET 0 0 0
					CHANNELS 3 Zrotation Yrotation Xrotation
					JOINT Neck1
					{
						OFFSET -0.03664 1.69515 0.31789
						CHANNELS 3 Zrotation Yrotation Xrotation
						JOINT Head
						{
							OFFSET 0.00932 1.70181 -0.46013
							CHANNELS 3 Zrotation Yrotation Xrotation
							End Site
							{
								OFFSET 0.01243 1.77620 -0.19377
							}
						}
					}
				}
				JOINT LeftShoulder
				{
					OFFSET 0 0 0
					CHANNELS 3 Zrotation Yrotation Xrotation
					JOINT LeftArm
					{
						OFFSET 3.74344 0.81315 -0.36647
						CHANNELS 3 Zrotation Yrotation Xrotation
						JOINT LeftForeArm
						{
							OFFSET 4.97185 -0.00000 -0.00000
							CHANNELS 3 Zrotation Yrotation Xrotation
							JOINT LeftHand
							{
								OFFSET 3.35811 -0.00000 0.00000
								CHANNELS 3 Zrotation Yrotation Xrotation
								JOINT LeftFingerBase
								{
									OFFSET 0 0 0
									CHANNELS 3 Zrotation Yrotation Xrotation
									JOINT LeftHandIndex1
									{
										OFFSET 0.62278 -0.00000 0.00000
										CHANNELS 3 Zrotation Yrotation Xrotation
										End Site
										{
											OFFSET 0.50210 -0.00000 0.00000
										}
									}
								}
								JOINT LThumb
								{
									OFFSET 0 0 0
									CHANNELS 3 Zrotation Yrotation Xrotation
									End Site
									{
										OFFSET 0.50976 -0.00000 0.50976
									}
								}
							}
						}
					}
				}
				JOINT RightShoulder
				{
					OFFSET 0 0 0
					CHANNELS 3 Zrotation Yrotation Xrotation
					JOINT RightArm
					{
						OFFSET -3.75385 0.50666 -0.06525
						CHANNELS 3 Zrotation Yrotation Xrotation
						JOINT RightForeArm
						{
							OFFSET -4.96493 -0.00000 -0.00000
							CHANNELS 3 Zrotation Yrotation Xrotation
							JOINT RightHand
							{
								OFFSET -3.34929 -0.00000 0.00000
								CHANNELS 3 Zrotation Yrotation Xrotation
								JOINT RightFingerBase
								{
									OFFSET 0 0 0
									CHANNELS 3 Zrotation Yrotation Xrotation
									JOINT RightHandIndex1
									{
										OFFSET -0.63804 -0.00000 0.00000
										CHANNELS 3 Zrotation Yrotation Xrotation
										End Site
										{
											OFFSET -0.51441 -0.00000 0.00000
										}
									}
								}
								JOINT RThumb
								{
									OFFSET 0 0 0
									CHANNELS 3 Zrotation Yrotation Xrotation
									End Site
									{
										OFFSET -0.52226 -0.00000 0.52226
									}
								}
							}
						}
					}
				}
			}
		}
	}
}
MOTION
Frames: 7
Frame Time: .0083333
-22.0596 16.618 0.5246 0 0 0 0 0 0 -21 0 0 0 0 0 0 0 0 0 0 0 0 0 0 21 0 0 0 0 0 0 0 0 0 0 0 0 0 0 0 0 0 0 0 0 0 0 -16 0 0 21 0 0 11 0 0 0 -8 0 0 0 0 0 0 0 0 0 0 0 0 0 0 0 0 0 0 0 0 8 0 0 0 0 0 0 0 0 0 0 0 0 0 0 0 0 0
-22.0596 16.6180 0.5246 -44.7298 89.2676 -41.1449 0.0000 0.0000 0.0000 -17.1715 -3.5650 -7.6118 2.5220 9.8779 28.5821 2.2538 10.3463 -33.5720 0.1981 2.8659 7.9056 0.0000 0.0000 0.0000 19.8806 6.4269 -1.6363 -1.1129 -6.7022 18.8360 -1.6660 23.6384 -26.6607 -0.2661 -3.3186 9.1671 -3.3833 -0.6539 -9.3475 1.1445 -0.5437 2.2518 3.0321 -0.4518 7.6849 -8.4668 -4.6254 -22.6799 5.3084 -4.8723 27.1173 2.6510 -2.1938 13.2643 -0.0000 0.0000 0.0000 -93.2402 -0.9978 23.4252 14.1405 -22.9352 -2.8826 -0.0000 0.0000 -1.1352 19.6882 -10.5142 -3.7358 -7.1250 0.0000 -0.0000 -5.2044 18.8542 3.2567 -0.0000 0.0000 0.0000 89.8726 2.8560 11.9863 -13.3574 21.8087 -2.5846 0.0000 -0.0000 -3.4347 -9.3851 -31.1357 4.8847 7.1250 -0.0000 -0.0000 25.4254 -59.6132 -9.4424
-22.0707 16.6288 0.5169 -59.6553 89.5405 -55.8208 0.0000 0.0000 0.0000 -17.3409 -3.9631 -7.7061 2.4847 9.8100 28.3636 2.2322 10.5285 -33.5694 0.1883 2.7948 7.7080 0.0000 0.0000 0.0000 19.5721 5.7337 -2.2088 -1.1130 -6.7023 18.8363 -1.9098 22.1572 -27.3900 -0.0514 -1.4627 4.0229 -3.3593 -0.7257 -9.3557 1.0645 -0.6384 2.0971 2.9182 -0.4897 7.5296 -8.4303 -4.6213 -22.5867 5.3150 -4.8887 27.1322 2.6458 -2.1965 13.2517 -0.0000 -0.0000 0.0000 -93.1769 -0.7676 23.4983 14.2671 -23.1152 -2.9321 -0.0000 0.0000 -1.1398 19.5048 -10.6144 -3.7330 -7.1250 0.0000 -0.0000 -5.3355 18.7624 3.3503 -0.0000 -0.0000 0.0000 89.9166 2.7720 11.9900 -13.3637 21.8178 -2.5869 0.0000 -0.0000 -3.5119 -9.1287 -30.4924 4.6614 7.1250 -0.0000 -0.0000 25.1540 -58.9799 -8.9478
-22.0813 16.6428 0.5092 -105.4470 89.7939 -101.3840 0.0000 0.0000 0.0000 -17.5679 -4.1580 -7.8824 2.4476 9.7419 28.1450 2.1761 10.5449 -33.2598 0.2076 2.9338 8.0944 0.0000 0.0000 0.0000 19.2629 5.4704 -2.5990 -1.1169 -6.7136 18.8695 -2.2807 20.0482 -28.6887 -0.0135 0.7505 -2.0627 -3.4437 -0.8218 -9.3613 0.9897 -0.7522 1.9931 2.8686 -0.5438 7.4303 -9.0648 -4.8293 -22.4183 5.7709 -5.1074 26.9782 2.8910 -2.2989 13.2091 -0.0000 -0.0000 0.0000 -93.1345 -0.7680 23.5719 14.2709 -23.1207 -2.9336 -0.0000 0.0000 -1.1612 19.5953 -10.3537 -3.6608 -7.1250 0.0000 -0.0000 -5.2680 19.0300 3.2762 -0.0000 -0.0000 0.0000 89.9358 2.7913 11.9792 -13.3589 21.8109 -2.5851 0.0000 -0.0000 -3.5633 -9.1568 -30.2650 4.6445 7.1250 -0.0000 -0.0000 24.9423 -58.7824 -8.7467
-22.0887 16.6489 0.5026 -18.3822 90.4153 -14.2105 0.0000 0.0000 0.0000 -17.9579 -4.3573 -7.9018 2.4067 9.6662 27.9023 2.0962 10.6466 -32.8662 0.2091 2.9442 8.1234 0.0000 0.0000 0.0000 18.8189 5.0375 -2.8640 -1.1158 -6.7105 18.8606 -2.6180 17.6093 -29.8931 -0.1811 2.7413 -7.5594 -3.7142 -0.9666 -9.2659 0.9176 -0.9126 1.8988 2.9206 -0.6283 7.2914 -9.3141 -4.8764 -22.2872 5.9247 -5.1404 26.9117 2.9876 -2.3201 13.1716 -0.0000 0.0000 0.0000 -93.1847 -0.7515 23.4721 14.2409 -23.0781 -2.9219 -0.0000 0.0000 -1.0487 19.6694 -10.1203 -3.5940 -7.1250 0.0000 -0.0000 -5.2126 19.2703 3.2135 -0.0000 0.0000 0.0000 89.9029 2.7638 11.9808 -13.3429 21.7876 -2.5792 0.0000 -0.0000 -3.5032 -9.2088 -30.1359 4.6533 7.1250 -0.0000 -0.0000 24.7865 -58.6778 -8.6247
-22.1078 16.6608 0.4965 -18.5570 90.5270 -14.0389 0.0000 0.0000 0.0000 -18.0373 -4.7955 -8.1046 2.3690 9.5956 27.6770 2.0605 10.8989 -32.8311 0.1909 2.8136 7.7603 0.0000 0.0000 0.0000 18.6505 4.6700 -3.5241 -1.1194 -6.7209 18.8911 -2.8242 15.8791 -30.6871 -0.4892 4.4846 -12.4441 -3.7277 -1.0643 -9.2365 0.9646 -1.0482 1.6773 2.9578 -0.6880 7.0500 -9.1702 -4.7467 -22.3678 5.7696 -4.9513 27.1384 2.9417 -2.2415 13.2543 -0.0000 0.0000 0.0000 -93.3067 -0.6369 23.2273 14.2391 -23.0755 -2.9212 -0.0000 0.0000 -0.9245 19.6374 -10.2075 -3.6182 -7.1250 0.0000 -0.0000 -5.2364 19.1808 3.2388 -0.0000 0.0000 0.0000 89.7847 2.6747 12.1490 -13.3359 21.7774 -2.5766 0.0000 -0.0000 -3.4447 -9.1010 -29.9405 4.5712 7.1250 -0.0000 -0.0000 24.7417 -58.4783 -8.4877
-22.1298 16.6861 0.4813 -29.2417 91.0112 -24.1001 0.0000 0.0000 0.0000 -18.4445 -5.5190 -8.5943 2.3400 9.5410 27.5029 2.0441 11.0497 -32.8404 0.1354 2.3721 6.5352 0.0000 0.0000 0.0000 18.0308 3.6228 -4.7139 -1.1191 -6.7200 18.8885 -2.9467 13.6146 -31.0870 -0.8836 5.9922 -16.7618 -3.8452 -1.2517 -9.4372 0.8788 -1.2730 1.4084 2.8978 -0.7930 6.8974 -8.6466 -4.5120 -22.6790 5.4558 -4.6852 27.5786 2.7860 -2.1072 13.4504 -0.0000 0.0000 0.0000 -93.4155 -4.1231 20.5015 10.6887 -17.8095 -1.6795 -0.0000 -0.0000 1.7124 20.7140 -12.6952 -4.7505 -7.1250 0.0000 -0.0000 -4.5388 16.4662 3.0759 -0.0000 0.0000 0.0000 89.7235 2.6740 12.3067 -13.3326 21.7726 -2.5753 0.0000 -0.0000 -3.4662 -9.0770 -29.9530 4.5607 7.1250 -0.0000 -0.0000 24.7758 -58.4843 -8.5039
